<svg xmlns="http://www.w3.org/2000/svg" width="20" height="19" fill="none" viewBox="0 0 20 19">
    <g clip-path="url(#clip0)">
        <path fill="#000" d="M6.177 12.283h10.096c.248 0 .466-.165.535-.403l2.226-7.793c.048-.168.015-.35-.09-.489-.106-.139-.27-.221-.445-.221H4.894l-.398-1.79c-.057-.255-.283-.437-.544-.437H.612c-.307 0-.556.25-.556.557 0 .307.249.557.556.557h2.894l2.01 9.044c-.592.257-1.007.847-1.007 1.532 0 .92.749 1.67 1.67 1.67h10.094c.307 0 .556-.25.556-.557 0-.307-.25-.556-.556-.556H6.179c-.307 0-.557-.25-.557-.557 0-.307.249-.556.555-.557zM17.761 4.49l-1.909 6.68H6.625L5.141 4.49h12.62zM5.622 16.18c0 .92.75 1.67 1.67 1.67.92 0 1.67-.75 1.67-1.67 0-.921-.75-1.67-1.67-1.67-.92 0-1.67.749-1.67 1.67zm1.67-.557c.307 0 .557.25.557.557 0 .307-.25.556-.557.556-.307 0-.557-.25-.557-.556 0-.307.25-.557.557-.557zM13.49 16.18c0 .92.748 1.67 1.67 1.67.92 0 1.67-.75 1.67-1.67 0-.921-.75-1.67-1.67-1.67-.922 0-1.67.749-1.67 1.67zm1.67-.557c.306 0 .556.25.556.557 0 .307-.25.556-.557.556-.307 0-.557-.25-.557-.556 0-.307.25-.557.557-.557z"/>
    </g>
    <defs>
        <clipPath id="clip0">
            <path fill="#fff" d="M0 0H19V19H0z" transform="translate(0.0556641)"/>
        </clipPath>
    </defs>
</svg>
