<svg xmlns="http://www.w3.org/2000/svg" width="19" height="17" fill="none" viewBox="0 0 19 17">
    <path fill="#000" d="M16.58 1.577C15.644.573 14.336.002 12.965 0c-1.373.002-2.683.573-3.618 1.577l-.319.336-.319-.336C6.854-.421 3.73-.536 1.733 1.32c-.089.083-.174.168-.256.257-1.97 2.123-1.97 5.405 0 7.529l7.084 7.47c.245.26.653.27.912.025l.025-.024 7.081-7.471c1.969-2.124 1.969-5.405 0-7.529zm-.934 6.64h-.001l-6.616 6.978-6.616-6.978c-1.504-1.622-1.504-4.13 0-5.752C3.779.985 6.086.89 7.567 2.257c.072.066.14.136.207.208l.787.83c.259.257.677.257.937 0l.786-.83c1.366-1.48 3.674-1.573 5.154-.207.072.066.141.135.207.207 1.518 1.625 1.529 4.137 0 5.752z"/>
</svg>
